{"glyphs":{"0":{"ha":600,"x_min":0,"x_max":600,"o":"m 305 529 l 305 529 q 376 529 431 497 q 485 464 516 405 q 547 346 547 266 l 547 266 q 547 186 515 123 q 483 59 427 23 q 370 -14 294 -14 l 294 -14 q 225 -14 170 19 q 115 51 84 111 q 52 170 52 250 l 52 250 q 52 329 84 392 q 115 455 172 492 q 229 529 305 529 z m 296 511 l 296 511 q 232 511 191 443 q 149 375 149 253 l 149 253 q 149 163 170 109 q 191 54 227 29 q 262 4 303 4 l 303 4 q 368 4 409 73 q 450 141 450 263 l 450 263 q 450 353 429 408 q 408 462 373 487 q 338 511 296 511 z"},"1":{"ha":370,"x_min":0,"x_max":370,"o":"m 253 526 l 253 526 l 253 103 q 253 55 275 38 q 297 21 349 21 l 349 21 l 349 0 q 329 1 291 3 q 252 4 211 4 l 211 4 q 165 4 123 3 q 80 1 57 0 l 57 0 l 57 21 q 107 21 135 38 q 163 54 163 103 l 163 103 l 163 345 q 163 393 153 416 q 143 439 118 446 q 92 453 47 453 l 47 453 l 47 475 q 119 477 167 488 q 215 499 253 526 z"},"2":{"ha":479,"x_min":0,"x_max":479,"o":"m 244 529 l 244 529 q 313 529 354 497 q 394 464 394 403 l 394 403 q 394 363 376 328 q 357 292 327 260 q 297 227 263 197 q 229 166 197 137 q 165 107 143 77 l 143 77 l 346 77 q 387 77 398 89 q 409 100 413 128 l 413 128 l 430 128 q 430 75 431 47 q 432 18 434 -5 l 434 -5 q 425 -3 401 -2 q 377 -1 346 0 q 315 0 285 0 l 285 0 l 51 0 l 51 17 q 81 50 123 88 q 165 125 205 170 q 244 214 271 267 q 297 319 297 381 l 297 381 q 297 438 271 464 q 244 489 197 489 l 197 489 q 157 489 123 466 q 89 442 63 395 l 63 395 l 47 404 q 62 436 88 465 q 113 493 152 511 q 190 529 244 529 z"},"3":{"ha":451,"x_min":0,"x_max":451,"o":"m 227 529 l 227 529 q 269 529 302 516 q 334 502 353 477 q 371 451 371 415 l 371 415 q 371 376 350 344 q 328 311 294 288 q 260 264 222 250 l 222 250 q 269 249 311 233 q 353 216 380 183 q 407 150 407 98 l 407 98 q 407 52 386 14 q 364 -25 327 -55 q 289 -86 241 -107 q 193 -129 141 -140 q 88 -151 37 -151 l 37 -151 l 37 -133 q 88 -132 137 -116 q 186 -101 226 -72 q 265 -43 289 0 q 312 43 312 98 l 312 98 q 312 157 284 196 q 255 234 206 238 l 206 238 q 191 232 180 228 q 168 223 159 223 l 159 223 q 151 223 147 227 q 143 230 143 236 l 143 236 q 143 245 151 250 q 159 255 169 255 l 169 255 q 177 255 186 254 q 194 252 204 251 l 204 251 q 245 282 263 320 q 281 357 281 395 l 281 395 q 281 442 258 464 q 234 485 194 485 l 194 485 q 153 485 119 463 q 84 441 61 396 l 61 396 l 44 404 q 59 437 83 466 q 107 494 143 512 q 178 529 227 529 z"},"4":{"ha":494,"x_min":0,"x_max":494,"o":"m 17 75 l 342 529 l 346 503 l 65 105 l 64 121 l 370 121 q 411 121 422 133 q 433 144 437 172 l 437 172 l 454 172 q 454 123 455 97 q 456 71 458 49 l 458 49 q 451 51 436 52 q 420 52 399 53 q 378 54 355 54 q 332 54 309 54 l 309 54 l 17 54 l 17 75 z m 342 529 l 358 529 l 358 -141 l 278 -141 l 278 423 l 342 529 z"},"5":{"ha":415,"x_min":0,"x_max":415,"o":"m 315 565 l 334 565 q 334 508 335 476 q 336 444 338 419 l 338 419 q 330 421 308 422 q 285 423 256 424 q 227 424 199 424 l 199 424 l 93 424 l 81 231 q 103 242 130 252 q 157 261 198 261 l 198 261 q 259 261 298 241 q 337 221 356 186 q 375 151 375 107 l 375 107 q 375 49 346 2 q 317 -45 269 -78 q 220 -112 162 -130 q 104 -148 45 -148 l 45 -148 l 45 -130 q 89 -130 131 -115 q 173 -101 207 -72 q 240 -44 260 -2 q 280 40 280 97 l 280 97 q 280 160 248 196 q 215 231 154 231 l 154 231 q 128 231 111 227 q 93 222 72 214 l 72 214 l 62 220 l 81 518 q 92 516 107 515 q 121 514 135 514 l 135 514 l 248 514 q 289 514 300 526 q 311 537 315 565 l 315 565 z"},"6":{"ha":517,"x_min":0,"x_max":517,"o":"m 394 723 l 394 723 l 398 703 q 365 692 331 675 q 296 658 264 628 q 232 598 207 552 q 182 505 167 437 q 152 368 152 272 l 152 272 q 152 167 170 109 q 188 51 215 29 q 242 6 269 6 l 269 6 q 299 6 325 27 q 350 47 366 93 q 382 139 382 213 l 382 213 q 382 285 368 328 q 353 371 329 390 q 304 409 274 409 l 274 409 q 252 409 226 399 q 200 389 178 366 q 156 342 146 299 l 146 299 l 136 293 q 143 349 171 381 q 199 412 235 425 q 270 438 299 438 l 299 438 q 346 438 387 413 q 428 387 454 339 q 479 290 479 220 l 479 220 q 479 145 449 93 q 419 40 369 13 q 319 -14 259 -14 l 259 -14 q 164 -14 110 61 q 55 135 55 270 l 55 270 q 55 361 77 431 q 99 501 136 553 q 172 604 217 639 q 261 674 308 695 q 354 715 394 723 z"},"7":{"ha":406,"x_min":0,"x_max":406,"o":"m 27 519 l 27 519 q 36 517 60 516 q 84 515 115 515 q 146 514 176 514 l 176 514 l 398 514 l 398 493 q 377 442 348 388 q 318 334 290 273 q 261 211 243 140 q 224 68 225 -18 l 225 -18 q 225 -34 226 -48 q 227 -62 228 -74 q 229 -86 229 -97 l 229 -97 q 229 -119 216 -133 q 203 -148 182 -148 l 182 -148 q 159 -148 148 -131 q 137 -114 137 -92 l 137 -92 q 137 -24 155 39 q 172 102 200 162 q 228 221 262 278 q 295 334 328 388 q 360 441 386 493 l 386 493 l 358 430 l 115 430 q 74 430 63 419 q 52 408 48 379 l 48 379 l 31 379 q 31 432 30 464 q 29 496 27 519 z"},"8":{"ha":520,"x_min":0,"x_max":520,"o":"m 268 722 l 268 722 q 313 722 351 707 q 388 691 411 661 q 433 630 433 585 l 433 585 q 433 524 393 477 q 353 430 290 390 l 290 390 l 282 404 q 308 426 324 452 q 339 478 346 509 q 353 539 353 572 l 353 572 q 353 631 329 668 q 304 704 257 704 l 257 704 q 217 704 190 676 q 163 647 163 597 l 163 597 q 163 550 185 515 q 207 479 242 450 q 277 421 316 394 q 355 366 390 336 q 425 305 447 267 q 469 228 469 177 l 469 177 q 469 120 441 77 q 413 34 365 10 q 316 -14 253 -14 l 253 -14 q 200 -14 154 5 q 108 23 80 61 q 52 98 52 154 l 52 154 q 52 206 76 248 q 99 289 139 321 q 178 352 226 374 l 226 374 l 234 360 q 182 325 161 276 q 140 226 140 169 l 140 169 q 140 126 152 89 q 163 51 190 28 q 216 4 259 4 l 259 4 q 309 4 347 38 q 384 71 384 135 l 384 135 q 384 184 363 221 q 341 258 307 290 q 273 321 235 350 q 196 379 162 410 q 128 441 107 479 q 85 517 85 566 l 85 566 q 85 613 110 648 q 134 683 176 703 q 217 722 268 722 z"},"9":{"ha":509,"x_min":0,"x_max":509,"o":"m 257 529 l 257 529 q 352 529 407 460 q 461 391 461 265 l 461 265 q 461 183 439 119 q 417 55 381 8 q 344 -40 300 -72 q 255 -104 209 -122 q 163 -141 122 -148 l 122 -148 l 118 -128 q 159 -116 203 -94 q 246 -72 283 -30 q 319 12 342 83 q 364 154 364 263 l 364 263 q 364 361 346 414 q 328 467 302 488 q 275 509 247 509 l 247 509 q 218 509 192 489 q 166 468 150 423 q 134 377 134 302 l 134 302 q 134 230 149 187 q 163 144 188 125 q 213 106 242 106 l 242 106 q 264 106 290 116 q 316 126 339 150 q 361 174 370 216 l 370 216 l 380 222 q 373 166 345 135 q 317 103 282 90 q 247 77 217 77 l 217 77 q 171 77 130 103 q 88 128 63 177 q 37 225 37 295 l 37 295 q 37 370 67 423 q 97 475 147 502 q 197 529 257 529 z"}," ":{"ha":249,"x_min":0,"x_max":249,"o":""},"!":{"ha":262,"x_min":0,"x_max":262,"o":"m 131 782 l 131 782 q 150 782 164 769 q 177 756 177 726 l 177 726 q 177 687 172 629 q 166 571 159 501 q 151 430 146 353 q 140 275 140 196 l 140 196 l 140 196 l 122 196 q 122 275 117 353 q 111 430 104 501 q 96 571 91 629 q 85 687 85 726 l 85 726 q 85 756 99 769 q 112 782 131 782 z m 131 114 l 131 114 q 157 114 176 95 q 195 76 195 50 l 195 50 q 195 24 176 5 q 157 -14 131 -14 l 131 -14 q 105 -14 86 5 q 67 24 67 50 l 67 50 q 67 76 86 95 q 105 114 131 114 z"},"\"":{"ha":298,"x_min":0,"x_max":298,"o":"m 95 730 l 95 730 q 110 730 121 718 q 131 706 131 684 l 131 684 q 131 651 127 623 q 123 594 117 559 q 110 523 102 468 l 102 468 l 88 468 q 81 520 74 556 q 67 591 63 621 q 59 650 59 683 l 59 683 q 59 705 70 717 q 80 729 95 730 z m 204 730 l 204 730 q 219 730 230 718 q 240 706 240 684 l 240 684 q 240 651 236 623 q 232 594 226 559 q 219 523 211 468 l 211 468 l 197 468 q 190 520 183 556 q 176 591 172 621 q 168 650 168 683 l 168 683 q 168 705 179 717 q 189 729 204 730 z"},"#":{"ha":637,"x_min":0,"x_max":637,"o":"m 451 602 l 471 602 l 374 101 l 354 101 l 451 602 z m 52 267 l 553 267 l 549 247 l 48 247 l 52 267 z m 264 602 l 284 602 l 187 101 l 167 101 l 264 602 z m 88 454 l 589 454 l 586 434 l 85 434 l 88 454 z"},"$":{"ha":523,"x_min":0,"x_max":523,"o":"m 247 719 l 247 719 q 297 719 323 708 q 349 696 369 682 l 369 682 q 381 675 389 672 q 396 668 403 668 l 403 668 q 413 668 418 679 q 422 690 425 712 l 425 712 l 448 712 q 447 695 446 672 q 444 648 444 610 q 443 571 443 508 l 443 508 l 420 508 q 417 556 399 600 q 381 644 347 672 q 312 700 256 700 l 256 700 q 203 700 169 668 q 134 636 134 584 l 134 584 q 134 550 148 525 q 161 500 185 480 q 208 459 238 441 q 268 422 302 401 l 302 401 q 354 369 395 338 q 435 306 459 268 q 482 230 482 176 l 482 176 q 482 112 453 70 q 424 28 376 7 q 328 -14 270 -14 l 270 -14 q 217 -14 186 -2 q 155 10 133 23 l 133 23 q 121 31 113 34 q 105 37 99 37 l 99 37 q 89 37 85 26 q 80 15 77 -7 l 77 -7 l 54 -7 q 56 14 57 43 q 57 71 58 117 q 58 163 58 233 l 58 233 l 81 233 q 84 188 95 147 q 106 106 127 74 q 148 42 182 24 q 215 6 263 6 l 263 6 q 296 6 326 20 q 355 33 374 63 q 393 92 393 139 l 393 139 q 393 169 382 194 q 371 219 350 240 q 329 261 301 281 q 272 301 237 322 l 237 322 q 190 351 149 381 q 108 411 84 451 q 59 490 59 546 l 59 546 q 59 605 86 644 q 112 682 155 701 q 198 719 247 719 z m 212 840 l 232 840 l 232 -132 l 212 -132 l 212 840 z m 296 840 l 316 840 l 316 -132 l 296 -132 l 296 840 z"},"%":{"ha":742,"x_min":0,"x_max":742,"o":"m 184 761 l 184 761 q 251 761 292 718 q 333 675 333 598 l 333 598 q 333 548 314 510 q 294 472 261 451 q 227 430 184 430 l 184 430 q 117 430 76 473 q 35 516 35 593 l 35 593 q 35 643 55 681 q 74 719 108 740 q 141 761 184 761 z m 554 299 l 554 299 q 515 299 496 261 q 477 223 477 150 l 477 150 q 477 77 499 41 q 521 4 558 4 l 558 4 q 597 4 616 42 q 634 80 634 152 l 634 152 q 634 226 613 263 q 592 299 554 299 z m 556 317 l 556 317 q 623 317 664 274 q 705 231 705 154 l 705 154 q 705 104 686 66 q 666 28 633 7 q 599 -14 556 -14 l 556 -14 q 489 -14 448 29 q 407 72 407 149 l 407 149 q 407 199 427 237 q 446 275 480 296 q 513 317 556 317 z m 182 743 l 182 743 q 143 743 124 705 q 105 667 105 594 l 105 594 q 105 521 127 485 q 149 448 186 448 l 186 448 q 225 448 244 486 q 262 524 262 596 l 262 596 q 262 670 241 707 q 220 743 182 743 z m 75 -42 l 660 824 l 679 811 l 94 -55 l 75 -42 z"},"&":{"ha":837,"x_min":0,"x_max":837,"o":"m 307 702 l 307 702 q 345 702 370 694 q 395 685 411 672 l 411 672 q 424 662 432 650 q 440 638 444 626 q 448 614 448 603 l 448 603 q 448 578 431 564 q 413 550 392 550 l 392 550 q 372 550 356 563 q 340 576 340 600 l 340 600 q 340 622 355 638 q 370 653 393 655 l 393 655 q 389 668 369 678 q 348 687 317 687 l 317 687 q 266 687 234 657 q 201 626 201 568 l 201 568 q 201 540 212 511 q 222 482 252 454 l 252 454 q 269 457 287 459 q 305 460 314 460 l 314 460 q 332 460 343 454 q 354 448 354 437 l 354 437 q 354 428 347 423 q 339 418 326 418 l 326 418 q 307 418 286 427 q 265 435 253 440 l 253 440 q 195 423 159 385 q 123 346 123 276 l 123 276 q 123 207 159 159 q 195 111 256 86 q 316 60 391 60 l 391 60 q 444 60 492 73 q 539 85 576 109 q 612 133 633 167 q 654 200 654 243 l 654 243 q 654 262 646 292 q 638 321 613 350 q 588 378 536 394 l 536 394 l 548 404 q 621 382 652 334 q 683 285 683 225 l 683 225 q 683 165 647 110 q 611 55 543 21 q 475 -14 378 -14 l 378 -14 q 313 -14 255 3 q 196 20 151 53 q 106 85 80 131 q 54 177 54 235 l 54 235 q 54 289 75 328 q 96 366 127 391 q 158 416 189 430 q 220 443 239 448 l 239 448 q 206 463 184 484 q 161 504 150 529 q 138 553 138 577 l 138 577 q 138 601 149 624 q 160 646 181 664 q 202 682 234 692 q 265 702 307 702 z m 671 722 l 671 722 q 733 722 775 687 q 817 651 817 587 l 817 587 q 817 553 805 527 q 792 500 771 480 q 749 460 722 447 l 722 447 q 699 436 662 423 q 624 410 582 397 q 539 384 501 372 q 462 359 438 350 l 438 350 q 401 336 376 316 q 350 295 350 263 l 350 263 q 350 237 365 219 q 380 201 402 192 q 423 183 442 183 l 442 183 q 451 183 465 186 q 478 188 489 193 q 500 198 502 205 l 502 205 q 486 208 471 220 q 455 231 455 256 l 455 256 q 455 280 471 294 q 487 308 510 308 l 510 308 q 534 308 549 293 q 563 278 563 254 l 563 254 q 563 226 545 207 q 526 187 499 178 q 471 168 444 168 l 444 168 q 416 168 387 180 q 358 192 339 218 q 320 243 320 285 l 320 285 q 320 320 336 347 q 351 374 382 395 q 413 416 458 431 l 458 431 q 488 441 531 453 q 574 465 620 479 q 665 493 702 510 l 702 510 q 752 533 770 557 q 788 581 788 606 l 788 606 q 788 635 772 658 q 756 680 730 694 q 703 707 672 707 l 672 707 q 660 707 652 705 q 644 703 642 698 l 642 698 q 656 691 663 678 q 670 665 670 652 l 670 652 q 670 631 654 617 q 637 603 614 603 l 614 603 q 595 603 578 616 q 561 628 561 653 l 561 653 q 561 679 579 694 q 596 709 622 716 q 647 722 671 722 z"},"'":{"ha":189,"x_min":0,"x_max":189,"o":"m 95 730 l 95 730 q 110 730 121 718 q 131 706 131 684 l 131 684 q 131 651 127 623 q 123 594 117 559 q 110 523 102 468 l 102 468 l 88 468 q 81 520 74 556 q 67 591 63 621 q 59 650 59 683 l 59 683 q 59 705 70 717 q 80 729 95 730 z"},"(":{"ha":294,"x_min":0,"x_max":294,"o":"m 264 806 l 264 806 l 278 793 q 194 695 161 579 q 128 462 128 312 l 128 312 q 128 162 161 46 q 194 -71 278 -169 l 278 -169 l 264 -182 q 163 -90 104 34 q 44 157 44 312 l 44 312 q 44 467 104 591 q 163 714 264 806 z"},")":{"ha":294,"x_min":0,"x_max":294,"o":"m 16 793 l 30 806 q 131 714 191 591 q 250 467 250 312 l 250 312 q 250 157 191 34 q 131 -90 30 -182 l 30 -182 l 16 -169 q 100 -71 133 46 q 166 162 166 312 l 166 312 q 166 462 133 579 q 100 695 16 793 l 16 793 z"},"*":{"ha":492,"x_min":0,"x_max":492,"o":"m 363 629 l 363 629 q 389 644 406 640 q 422 635 429 623 l 429 623 q 436 612 431 596 q 426 580 400 565 l 400 565 q 375 551 339 543 q 302 534 246 517 l 246 517 l 245 520 q 285 558 312 587 q 339 615 363 629 z m 245 517 l 247 520 q 300 504 338 495 q 376 486 401 472 l 401 472 q 427 457 432 441 q 436 424 428 412 l 428 412 q 422 401 406 397 q 390 393 364 408 l 364 408 q 339 422 313 450 q 287 477 245 517 l 245 517 z m 245 518 l 248 518 q 261 465 272 427 q 283 389 284 361 l 284 361 q 283 331 271 319 q 259 307 245 307 l 245 307 q 232 307 221 319 q 210 330 210 361 l 210 361 q 210 390 221 426 q 232 462 245 518 l 245 518 z m 245 519 l 245 519 l 247 516 q 207 479 180 450 q 153 421 129 407 l 129 407 q 103 392 87 397 q 70 401 63 413 l 63 413 q 56 424 61 440 q 66 455 92 471 l 92 471 q 117 485 154 494 q 190 503 245 519 z m 128 628 l 128 628 q 153 614 179 587 q 205 559 246 519 l 246 519 l 245 516 q 193 532 155 542 q 116 551 91 564 l 91 564 q 66 579 62 596 q 57 612 64 624 l 64 624 q 70 635 86 639 q 102 643 128 628 z m 246 729 l 246 729 q 260 729 271 717 q 282 705 282 675 l 282 675 q 282 647 272 611 q 261 574 247 518 l 247 518 l 244 518 q 231 571 220 609 q 209 647 209 675 l 209 675 q 209 705 221 717 q 233 729 246 729 z"},"+":{"ha":587,"x_min":0,"x_max":587,"o":"m 276 606 l 312 606 l 312 370 l 544 370 l 544 340 l 312 340 l 312 105 l 276 105 l 276 340 l 43 340 l 43 370 l 276 370 l 276 606 z"},",":{"ha":261,"x_min":0,"x_max":261,"o":"m 126 114 l 126 114 q 148 114 162 105 q 176 96 185 82 l 185 82 q 196 66 199 47 q 202 28 202 16 l 202 16 q 202 -33 177 -73 q 152 -113 99 -138 l 99 -138 l 90 -120 q 121 -107 144 -79 q 166 -51 166 -22 l 166 -22 q 166 -10 163 -1 l 163 -1 q 147 -14 126 -14 l 126 -14 q 100 -14 81 3 q 62 20 62 50 l 62 50 q 62 78 81 96 q 100 114 126 114 z"},"-":{"ha":499,"x_min":0,"x_max":499,"o":"m 69 298 l 430 298 l 430 240 l 69 240 l 69 298 z"},".":{"ha":252,"x_min":0,"x_max":252,"o":"m 126 114 l 126 114 q 152 114 171 95 q 190 76 190 50 l 190 50 q 190 24 171 5 q 152 -14 126 -14 l 126 -14 q 100 -14 81 5 q 62 24 62 50 l 62 50 q 62 76 81 95 q 100 114 126 114 z"},"/":{"ha":372,"x_min":0,"x_max":372,"o":"m 306 722 l 339 722 l 67 -14 l 34 -14 l 306 722 z"},":":{"ha":266,"x_min":0,"x_max":266,"o":"m 133 528 l 133 528 q 159 528 178 509 q 197 490 197 464 l 197 464 q 197 438 178 419 q 159 400 133 400 l 133 400 q 107 400 88 419 q 69 438 69 464 l 69 464 q 69 490 88 509 q 107 528 133 528 z m 133 114 l 133 114 q 159 114 178 95 q 197 76 197 50 l 197 50 q 197 24 178 5 q 159 -14 133 -14 l 133 -14 q 107 -14 88 5 q 69 24 69 50 l 69 50 q 69 76 88 95 q 107 114 133 114 z"},";":{"ha":285,"x_min":0,"x_max":285,"o":"m 137 114 l 137 114 q 159 114 173 105 q 187 96 196 82 l 196 82 q 207 66 210 47 q 213 28 213 16 l 213 16 q 213 -33 188 -73 q 163 -113 110 -138 l 110 -138 l 101 -120 q 132 -107 155 -79 q 177 -51 177 -22 l 177 -22 q 177 -10 174 -1 l 174 -1 q 158 -14 137 -14 l 137 -14 q 111 -14 92 3 q 73 20 73 50 l 73 50 q 73 78 92 96 q 111 114 137 114 z m 144 528 l 144 528 q 170 528 189 509 q 208 490 208 464 l 208 464 q 208 438 189 419 q 170 400 144 400 l 144 400 q 118 400 99 419 q 80 438 80 464 l 80 464 q 80 490 99 509 q 118 528 144 528 z"},"<":{"ha":608,"x_min":0,"x_max":608,"o":"m 30 355 l 517 582 l 534 546 l 125 355 l 534 164 l 517 128 l 30 355 z"},"=":{"ha":647,"x_min":0,"x_max":647,"o":"m 73 440 l 574 440 l 574 410 l 73 410 l 73 440 z m 73 300 l 574 300 l 574 270 l 73 270 l 73 300 z"},">":{"ha":608,"x_min":0,"x_max":608,"o":"m 74 546 l 91 582 l 578 355 l 91 128 l 74 164 l 483 355 l 74 546 z"},"?":{"ha":459,"x_min":0,"x_max":459,"o":"m 215 782 l 215 782 q 278 782 325 761 q 372 739 399 699 q 425 658 425 602 l 425 602 q 425 546 397 502 q 368 458 318 428 q 267 397 200 380 l 200 380 l 200 234 l 180 234 l 180 389 q 247 414 280 444 q 313 474 325 509 q 336 544 336 583 l 336 583 q 336 678 297 720 q 258 762 196 762 l 196 762 q 172 762 144 755 q 115 748 98 726 l 98 726 q 117 722 129 709 q 140 696 140 675 l 140 675 q 140 650 124 636 q 108 621 85 621 l 85 621 q 62 621 47 636 q 32 651 32 674 l 32 674 q 32 695 45 714 q 58 732 79 746 l 79 746 q 100 760 134 771 q 167 782 215 782 z m 191 114 l 191 114 q 217 114 236 95 q 255 76 255 50 l 255 50 q 255 24 236 5 q 217 -14 191 -14 l 191 -14 q 165 -14 146 5 q 127 24 127 50 l 127 50 q 127 76 146 95 q 165 114 191 114 z"},"@":{"ha":878,"x_min":0,"x_max":878,"o":"m 532 668 l 532 668 q 619 668 690 640 q 760 612 802 552 q 844 491 844 393 l 844 393 q 844 309 817 241 q 790 173 747 125 q 703 77 653 52 q 602 26 554 26 l 554 26 q 514 26 498 43 q 482 60 482 85 q 482 109 488 132 q 494 155 497 166 l 497 166 l 558 464 q 581 464 605 467 q 629 470 648 478 l 648 478 l 564 111 q 558 89 558 76 q 558 62 566 57 q 573 51 587 51 l 587 51 q 616 51 656 74 q 696 96 735 140 q 773 183 799 247 q 824 311 824 394 l 824 394 q 824 487 784 543 q 744 599 678 625 q 612 650 533 650 l 533 650 q 460 650 391 624 q 322 598 264 551 q 205 503 162 440 q 118 376 94 301 q 69 226 69 145 l 69 145 q 69 42 108 -21 q 147 -85 215 -114 q 283 -143 369 -143 l 369 -143 q 423 -143 475 -130 q 526 -118 575 -89 l 575 -89 l 582 -102 q 545 -128 490 -144 q 435 -161 368 -161 l 368 -161 q 275 -161 203 -129 q 131 -97 90 -30 q 49 37 49 143 l 49 143 q 49 224 73 301 q 97 377 142 444 q 186 510 246 561 q 306 611 379 640 q 451 668 532 668 z m 478 478 l 478 478 q 501 478 519 469 q 536 460 546 441 q 555 421 552 387 l 552 387 l 544 383 q 544 409 537 425 q 530 441 516 448 q 502 455 482 455 l 482 455 q 449 455 421 428 q 392 401 371 357 q 349 312 337 259 q 325 206 325 153 l 325 153 q 325 104 339 80 q 352 56 377 56 l 377 56 q 416 56 457 117 q 497 178 522 285 l 522 285 l 530 269 q 508 186 482 132 q 456 78 423 52 q 389 26 343 26 l 343 26 q 305 26 283 42 q 260 58 250 86 q 240 113 240 147 l 240 147 q 240 204 261 263 q 282 321 317 370 q 351 418 393 448 q 435 478 478 478 z"},"A":{"ha":630,"x_min":0,"x_max":630,"o":"m 323 713 l 323 713 l 567 84 q 582 46 601 34 q 620 21 636 20 l 636 20 l 636 0 q 616 2 587 3 q 558 3 529 3 l 529 3 q 490 3 456 3 q 422 2 401 0 l 401 0 l 401 20 q 452 22 466 38 q 480 53 460 104 l 460 104 l 274 601 l 290 614 l 116 162 q 100 122 97 95 q 94 67 103 51 q 111 35 132 28 q 152 21 183 20 l 183 20 l 183 0 q 155 2 125 3 q 94 3 68 3 l 68 3 q 43 3 26 3 q 8 2 -7 0 l -7 0 l -7 20 q 13 25 34 44 q 55 62 72 107 l 72 107 l 307 713 q 311 713 315 713 q 319 713 323 713 z m 157 288 l 445 288 l 445 268 l 147 268 l 157 288 z"},"B":{"ha":623,"x_min":0,"x_max":623,"o":"m 42 688 l 42 708 q 63 707 97 706 q 131 705 164 705 l 164 705 q 211 705 254 706 q 297 707 315 707 l 315 707 q 420 707 473 663 q 526 619 526 550 l 526 550 q 526 515 512 482 q 497 448 464 421 q 430 393 374 376 l 374 376 l 374 374 q 453 364 498 337 q 542 309 560 272 q 578 235 578 194 l 578 194 q 578 137 550 94 q 521 50 467 25 q 413 0 338 0 l 338 0 q 316 0 272 2 q 228 3 166 3 l 166 3 q 131 3 97 3 q 63 2 42 0 l 42 0 l 42 20 q 76 22 94 28 q 111 34 117 52 q 123 70 123 106 l 123 106 l 123 602 q 123 639 117 657 q 111 674 94 681 q 76 687 42 688 l 42 688 z m 290 688 l 290 688 q 244 688 230 671 q 216 654 216 602 l 216 602 l 216 106 q 216 71 222 53 q 228 35 244 29 q 260 23 291 23 l 291 23 q 389 23 434 69 q 478 114 478 198 l 478 198 q 478 275 437 317 q 395 359 300 359 l 300 359 l 197 359 q 197 359 197 368 q 197 376 197 376 l 197 376 l 283 376 q 342 376 374 399 q 406 421 418 459 q 430 496 430 539 l 430 539 q 430 613 398 651 q 365 688 290 688 z"},"C":{"ha":688,"x_min":0,"x_max":688,"o":"m 371 722 l 371 722 q 437 722 480 703 q 522 683 555 657 l 555 657 q 575 642 586 654 q 596 665 600 708 l 600 708 l 623 708 q 621 671 620 618 q 619 565 619 478 l 619 478 l 596 478 q 589 521 583 547 q 577 572 569 590 q 560 608 546 626 l 546 626 q 515 667 468 686 q 421 704 369 704 l 369 704 q 320 704 281 680 q 241 655 213 609 q 184 563 169 498 q 153 433 153 352 l 153 352 q 153 268 170 204 q 187 139 218 95 q 248 51 290 29 q 331 6 379 6 l 379 6 q 424 6 473 24 q 522 42 550 82 l 550 82 q 572 111 581 145 q 589 179 596 240 l 596 240 l 619 240 q 619 149 620 94 q 621 38 623 0 l 623 0 l 600 0 q 596 43 587 54 q 577 65 555 51 l 555 51 q 518 25 477 6 q 435 -14 370 -14 l 370 -14 q 275 -14 204 29 q 132 72 93 153 q 53 234 53 348 l 53 348 q 53 460 94 544 q 135 628 207 675 q 278 722 371 722 z"},"D":{"ha":723,"x_min":0,"x_max":723,"o":"m 315 708 l 315 708 q 494 708 581 619 q 668 529 668 362 l 668 362 q 668 253 626 172 q 583 90 502 45 q 421 0 306 0 l 306 0 q 291 0 266 1 q 241 2 215 3 q 188 3 166 3 l 166 3 q 131 3 97 3 q 63 2 42 0 l 42 0 l 42 20 q 76 22 94 28 q 111 34 117 52 q 123 70 123 106 l 123 106 l 123 602 q 123 639 117 657 q 111 674 94 681 q 76 687 42 688 l 42 688 l 42 708 q 63 707 97 706 q 131 704 164 705 l 164 705 q 199 706 243 707 q 287 708 315 708 z m 290 690 l 290 690 q 244 690 230 673 q 216 656 216 604 l 216 604 l 216 104 q 216 52 231 35 q 245 18 291 18 l 291 18 q 400 18 460 58 q 520 97 544 173 q 568 249 568 358 l 568 358 q 568 470 542 544 q 515 617 455 654 q 394 690 290 690 z"},"E":{"ha":609,"x_min":0,"x_max":609,"o":"m 541 708 l 541 708 q 537 673 536 640 q 534 607 534 590 l 534 590 q 534 572 535 556 q 536 539 537 528 l 537 528 l 514 528 q 508 587 497 622 q 486 656 460 671 q 433 685 380 685 l 380 685 l 297 685 q 263 685 246 680 q 228 674 222 657 q 216 639 216 602 l 216 602 l 216 106 q 216 70 222 52 q 228 34 246 29 q 263 23 297 23 l 297 23 l 370 23 q 433 23 466 40 q 498 57 513 96 q 527 134 534 200 l 534 200 l 557 200 q 554 173 554 128 l 554 128 q 554 109 556 74 q 557 38 561 0 l 561 0 q 510 2 446 3 q 382 3 332 3 l 332 3 q 310 3 276 3 q 241 3 201 3 q 161 2 120 2 q 79 1 42 0 l 42 0 l 42 20 q 76 22 94 28 q 111 34 117 52 q 123 70 123 106 l 123 106 l 123 602 q 123 639 117 657 q 111 674 94 681 q 76 687 42 688 l 42 688 l 42 708 q 79 707 120 707 q 161 706 201 706 q 241 705 276 705 q 310 705 332 705 l 332 705 q 378 705 437 706 q 495 706 541 708 z m 186 366 l 369 366 q 369 366 369 356 q 369 346 369 346 l 369 346 l 186 346 q 186 346 186 356 q 186 366 186 366 l 186 366 z m 375 498 l 398 498 q 394 441 395 411 q 395 381 395 356 l 395 356 q 395 331 396 301 q 397 271 401 214 l 401 214 l 378 214 q 374 246 369 277 q 363 307 345 327 q 326 346 282 346 l 282 346 l 282 366 q 315 366 333 380 q 350 393 358 414 q 366 435 369 458 q 372 480 375 498 l 375 498 z"},"F":{"ha":569,"x_min":0,"x_max":569,"o":"m 541 708 l 541 708 q 537 670 536 635 q 534 599 534 580 l 534 580 q 534 556 535 535 q 536 514 537 498 l 537 498 l 514 498 q 507 568 495 609 q 483 649 453 667 q 423 685 360 685 l 360 685 l 297 685 q 263 685 246 680 q 228 674 222 657 q 216 639 216 602 l 216 602 l 216 106 q 216 70 224 52 q 231 34 253 28 q 275 22 317 20 l 317 20 l 317 0 q 291 2 251 3 q 211 3 170 3 l 170 3 q 131 3 97 3 q 63 2 42 0 l 42 0 l 42 20 q 76 22 94 28 q 111 34 117 52 q 123 70 123 106 l 123 106 l 123 602 q 123 639 117 657 q 111 674 94 681 q 76 687 42 688 l 42 688 l 42 708 q 79 707 120 707 q 161 706 201 706 q 241 705 276 705 q 310 705 332 705 l 332 705 q 378 705 437 706 q 495 706 541 708 z m 186 356 l 386 356 q 386 356 386 346 q 386 336 386 336 l 386 336 l 186 336 q 186 336 186 346 q 186 356 186 356 l 186 356 z m 382 488 l 405 488 q 401 431 402 401 q 402 371 402 346 l 402 346 q 402 321 403 291 q 404 261 408 204 l 408 204 l 385 204 q 381 236 376 267 q 370 297 352 317 q 333 336 289 336 l 289 336 l 289 356 q 322 356 340 370 q 357 383 365 404 q 373 425 376 448 q 379 470 382 488 l 382 488 z"},"G":{"ha":703,"x_min":0,"x_max":703,"o":"m 376 722 l 376 722 q 441 722 481 703 q 521 683 556 657 l 556 657 q 569 647 576 647 l 576 647 q 595 647 601 708 l 601 708 l 624 708 q 622 671 621 618 q 620 565 620 478 l 620 478 l 597 478 q 590 520 580 559 q 570 598 547 626 l 547 626 q 518 663 471 684 q 424 704 374 704 l 374 704 q 324 704 284 680 q 243 655 214 609 q 185 563 170 499 q 154 434 154 353 l 154 353 q 154 173 212 90 q 270 6 392 6 l 392 6 q 428 6 455 17 q 481 27 496 37 l 496 37 q 515 50 520 62 q 525 73 525 92 l 525 92 l 525 188 q 525 229 517 249 q 509 269 488 276 q 466 283 424 284 l 424 284 l 424 304 q 442 303 466 303 q 490 302 517 302 q 543 301 565 301 l 565 301 q 598 301 625 302 q 651 303 669 304 l 669 304 l 669 284 q 647 283 636 277 q 625 271 622 253 q 618 235 618 198 l 618 198 l 618 0 l 598 0 q 597 17 591 37 q 584 57 571 57 l 571 57 q 565 57 559 54 q 553 51 538 40 l 538 40 q 505 15 468 1 q 431 -14 382 -14 l 382 -14 q 279 -14 206 29 q 132 71 93 151 q 54 231 54 342 l 54 342 q 54 459 96 544 q 138 629 211 676 q 283 722 376 722 z"},"H":{"ha":757,"x_min":0,"x_max":757,"o":"m 460 0 l 460 0 l 460 20 q 494 22 512 28 q 529 34 535 52 q 541 70 541 106 l 541 106 l 541 602 q 541 639 535 657 q 529 674 512 681 q 494 687 460 688 l 460 688 l 460 708 q 483 707 518 706 q 553 705 587 705 l 587 705 q 626 705 660 706 q 694 707 715 708 l 715 708 l 715 688 q 681 687 664 681 q 646 674 640 657 q 634 639 634 602 l 634 602 l 634 106 q 634 70 640 52 q 646 34 664 28 q 681 22 715 20 l 715 20 l 715 0 q 694 2 660 3 q 626 3 587 3 l 587 3 q 553 3 518 3 q 483 2 460 0 z m 42 0 l 42 0 l 42 20 q 76 22 94 28 q 111 34 117 52 q 123 70 123 106 l 123 106 l 123 602 q 123 639 117 657 q 111 674 94 681 q 76 687 42 688 l 42 688 l 42 708 q 63 707 97 706 q 131 705 170 705 l 170 705 q 205 705 240 706 q 274 707 297 708 l 297 708 l 297 688 q 263 687 246 681 q 228 674 222 657 q 216 639 216 602 l 216 602 l 216 106 q 216 70 222 52 q 228 34 246 28 q 263 22 297 20 l 297 20 l 297 0 q 274 2 240 3 q 205 3 170 3 l 170 3 q 131 3 97 3 q 63 2 42 0 z m 576 346 l 181 346 l 181 366 l 576 366 l 576 346 z"},"I":{"ha":339,"x_min":0,"x_max":339,"o":"m 297 708 l 297 708 l 297 688 q 263 687 246 681 q 228 674 222 657 q 216 639 216 602 l 216 602 l 216 106 q 216 70 222 52 q 228 34 246 28 q 263 22 297 20 l 297 20 l 297 0 q 274 2 240 3 q 205 3 170 3 l 170 3 q 131 3 97 3 q 63 2 42 0 l 42 0 l 42 20 q 76 22 94 28 q 111 34 117 52 q 123 70 123 106 l 123 106 l 123 602 q 123 639 117 657 q 111 674 94 681 q 76 687 42 688 l 42 688 l 42 708 q 63 707 97 706 q 131 705 170 705 l 170 705 q 205 705 240 706 q 274 707 297 708 z"},"J":{"ha":326,"x_min":0,"x_max":326,"o":"m -20 -188 l -20 -188 l -20 -169 q 25 -168 56 -147 q 86 -126 102 -77 q 117 -29 117 52 l 117 52 l 117 602 q 117 639 111 657 q 105 674 88 681 q 70 687 36 688 l 36 688 l 36 708 q 57 707 91 706 q 125 705 162 705 l 162 705 q 199 705 234 706 q 268 707 291 708 l 291 708 l 291 688 q 257 687 240 681 q 222 674 216 657 q 210 639 210 602 l 210 602 l 210 236 q 210 195 209 147 q 208 99 205 54 q 201 9 193 -25 l 193 -25 q 176 -95 122 -141 q 67 -188 -20 -188 z"},"K":{"ha":655,"x_min":0,"x_max":655,"o":"m 615 708 l 615 708 l 615 688 q 584 684 555 668 q 526 652 497 615 l 497 615 l 304 368 l 326 417 l 566 81 q 583 56 603 42 q 623 28 654 20 l 654 20 l 654 0 q 630 2 595 3 q 559 3 534 3 l 534 3 q 517 3 493 3 q 468 2 431 0 l 431 0 l 431 20 q 465 22 474 32 q 483 42 467 65 l 467 65 l 321 285 q 301 316 286 332 q 270 347 254 352 q 237 357 212 358 l 212 358 l 212 378 q 254 379 283 395 q 311 410 330 434 l 330 434 l 426 556 q 459 598 471 627 q 483 656 470 672 q 457 687 415 688 l 415 688 l 415 708 q 434 707 454 707 q 474 706 494 706 q 513 705 530 705 l 530 705 q 556 705 578 706 q 600 707 615 708 z m 297 708 l 297 708 l 297 688 q 263 687 246 681 q 228 674 222 657 q 216 639 216 602 l 216 602 l 216 106 q 216 70 222 52 q 228 34 246 28 q 263 22 297 20 l 297 20 l 297 0 q 274 2 240 3 q 205 3 170 3 l 170 3 q 131 3 97 3 q 63 2 42 0 l 42 0 l 42 20 q 76 22 94 28 q 111 34 117 52 q 123 70 123 106 l 123 106 l 123 602 q 123 639 117 657 q 111 674 94 681 q 76 687 42 688 l 42 688 l 42 708 q 63 707 97 706 q 131 705 170 705 l 170 705 q 205 705 240 706 q 274 707 297 708 z"},"L":{"ha":588,"x_min":0,"x_max":588,"o":"m 297 708 l 297 708 l 297 688 q 263 687 246 681 q 228 674 222 657 q 216 639 216 602 l 216 602 l 216 106 q 216 70 222 52 q 228 34 246 29 q 263 23 297 23 l 297 23 l 370 23 q 417 23 447 33 q 476 43 494 65 q 511 86 520 122 q 529 158 534 210 l 534 210 l 557 210 q 554 179 554 128 l 554 128 q 554 109 556 74 q 557 38 561 0 l 561 0 q 510 2 446 3 q 382 3 332 3 l 332 3 q 310 3 276 3 q 241 3 201 3 q 161 2 120 2 q 79 1 42 0 l 42 0 l 42 20 q 76 22 94 28 q 111 34 117 52 q 123 70 123 106 l 123 106 l 123 602 q 123 639 117 657 q 111 674 94 681 q 76 687 42 688 l 42 688 l 42 708 q 63 707 97 706 q 131 705 170 705 l 170 705 q 205 705 240 706 q 274 707 297 708 z"},"M":{"ha":871,"x_min":0,"x_max":871,"o":"m 829 708 l 829 708 l 829 688 q 795 687 778 681 q 760 674 754 657 q 748 639 748 602 l 748 602 l 748 106 q 748 70 754 52 q 760 34 778 28 q 795 22 829 20 l 829 20 l 829 0 q 806 2 772 3 q 737 3 702 3 l 702 3 q 663 3 629 3 q 595 2 574 0 l 574 0 l 574 20 q 608 22 626 28 q 643 34 649 52 q 655 70 655 106 l 655 106 l 655 656 l 659 653 l 414 -5 l 398 -5 l 146 644 l 146 116 q 146 80 153 60 q 159 39 179 31 q 198 22 237 20 l 237 20 l 237 0 q 219 2 190 3 q 161 3 135 3 l 135 3 q 110 3 85 3 q 59 2 42 0 l 42 0 l 42 20 q 76 22 94 31 q 111 39 117 60 q 123 80 123 116 l 123 116 l 123 602 q 123 639 117 657 q 111 674 94 681 q 76 687 42 688 l 42 688 l 42 708 q 59 707 85 706 q 110 705 135 705 l 135 705 q 157 705 181 706 q 204 707 220 708 l 220 708 l 447 110 l 430 102 l 655 705 q 667 705 679 705 q 690 705 702 705 l 702 705 q 737 705 772 706 q 806 707 829 708 z"},"N":{"ha":706,"x_min":0,"x_max":706,"o":"m 670 708 l 670 708 l 670 688 q 636 687 619 678 q 601 669 595 649 q 589 629 589 592 l 589 592 l 589 -5 q 583 -5 578 -5 q 572 -5 566 -5 l 566 -5 l 146 644 l 146 116 q 146 80 153 60 q 159 39 179 31 q 198 22 237 20 l 237 20 l 237 0 q 219 2 190 3 q 161 3 135 3 l 135 3 q 110 3 85 3 q 59 2 42 0 l 42 0 l 42 20 q 76 22 94 31 q 111 39 117 60 q 123 80 123 116 l 123 116 l 123 602 q 123 639 117 657 q 111 674 94 681 q 76 687 42 688 l 42 688 l 42 708 q 59 707 85 706 q 110 705 135 705 l 135 705 q 157 705 177 706 q 197 707 213 708 l 213 708 l 566 164 l 566 592 q 566 629 560 649 q 553 669 534 678 q 514 687 475 688 l 475 688 l 475 708 q 493 707 523 706 q 552 705 577 705 l 577 705 q 603 705 629 706 q 654 707 670 708 z"},"O":{"ha":741,"x_min":0,"x_max":741,"o":"m 371 722 l 371 722 q 466 722 538 679 q 609 636 649 556 q 688 475 688 360 l 688 360 q 688 248 648 164 q 607 80 535 33 q 463 -14 370 -14 l 370 -14 q 275 -14 204 29 q 132 72 93 153 q 53 234 53 348 l 53 348 q 53 460 94 544 q 135 628 207 675 q 278 722 371 722 z m 367 704 l 367 704 q 302 704 254 659 q 206 614 180 535 q 153 456 153 352 l 153 352 q 153 246 183 168 q 212 89 263 47 q 313 4 374 4 l 374 4 q 439 4 487 49 q 535 94 562 174 q 588 253 588 356 l 588 356 q 588 463 559 541 q 529 619 479 662 q 429 704 367 704 z"},"P":{"ha":585,"x_min":0,"x_max":585,"o":"m 42 688 l 42 708 q 63 707 97 706 q 131 705 164 705 l 164 705 q 211 705 254 706 q 297 707 315 707 l 315 707 q 436 707 496 652 q 556 597 556 510 l 556 510 q 556 474 544 435 q 532 395 503 362 q 473 328 422 307 q 371 286 293 286 l 293 286 l 197 286 l 197 306 l 283 306 q 354 306 392 333 q 429 360 443 404 q 456 448 456 499 l 456 499 q 456 594 419 641 q 381 688 290 688 l 290 688 q 244 688 230 671 q 216 654 216 602 l 216 602 l 216 106 q 216 70 224 52 q 231 34 253 28 q 275 22 317 20 l 317 20 l 317 0 q 291 2 251 3 q 211 3 170 3 l 170 3 q 131 3 97 3 q 63 2 42 0 l 42 0 l 42 20 q 76 22 94 28 q 111 34 117 52 q 123 70 123 106 l 123 106 l 123 602 q 123 639 117 657 q 111 674 94 681 q 76 687 42 688 l 42 688 z"},"Q":{"ha":741,"x_min":0,"x_max":741,"o":"m 748 -23 l 748 -23 l 763 -29 q 751 -70 736 -97 q 720 -125 700 -143 l 700 -143 q 681 -160 649 -174 q 616 -188 565 -188 l 565 -188 q 512 -188 463 -170 q 413 -153 360 -128 q 307 -103 243 -82 l 243 -82 q 236 -80 230 -78 q 224 -76 219 -75 l 219 -75 q 200 -82 178 -86 q 156 -90 136 -90 l 136 -90 q 116 -90 103 -85 q 90 -80 90 -70 l 90 -70 q 90 -49 144 -49 l 144 -49 q 179 -49 219 -57 l 219 -57 q 255 -47 281 -34 q 307 -22 335 -11 q 362 0 401 3 l 401 3 l 402 -13 q 372 -16 350 -24 q 328 -33 306 -43 q 284 -53 254 -62 l 254 -62 q 304 -72 363 -83 q 422 -94 477 -102 q 532 -110 571 -110 l 571 -110 q 643 -110 685 -89 q 726 -68 748 -23 z m 371 722 l 371 722 q 466 722 538 679 q 609 636 649 556 q 688 475 688 360 l 688 360 q 688 248 648 164 q 607 80 535 33 q 463 -14 370 -14 l 370 -14 q 275 -14 204 29 q 132 72 93 153 q 53 234 53 348 l 53 348 q 53 460 94 544 q 135 628 207 675 q 278 722 371 722 z m 367 704 l 367 704 q 302 704 254 659 q 206 614 180 535 q 153 456 153 352 l 153 352 q 153 246 183 168 q 212 89 263 47 q 313 4 374 4 l 374 4 q 439 4 487 49 q 535 94 562 174 q 588 253 588 356 l 588 356 q 588 463 559 541 q 529 619 479 662 q 429 704 367 704 z"},"R":{"ha":648,"x_min":0,"x_max":648,"o":"m 42 688 l 42 708 q 63 707 97 706 q 131 705 164 705 l 164 705 q 211 705 254 706 q 297 707 315 707 l 315 707 q 396 707 450 684 q 503 661 530 622 q 556 582 556 533 l 556 533 q 556 503 544 469 q 532 435 503 405 q 473 375 422 356 q 371 336 293 336 l 293 336 l 197 336 l 197 356 l 283 356 q 354 356 392 379 q 429 401 443 439 q 456 476 456 522 l 456 522 q 456 601 419 645 q 381 688 290 688 l 290 688 q 244 688 230 671 q 216 654 216 602 l 216 602 l 216 106 q 216 70 222 52 q 228 34 246 28 q 263 22 297 20 l 297 20 l 297 0 q 274 2 240 3 q 205 3 170 3 l 170 3 q 131 3 97 3 q 63 2 42 0 l 42 0 l 42 20 q 76 22 94 28 q 111 34 117 52 q 123 70 123 106 l 123 106 l 123 602 q 123 639 117 657 q 111 674 94 681 q 76 687 42 688 l 42 688 z m 203 336 l 201 353 q 255 351 286 349 q 317 346 337 344 q 356 342 374 339 l 374 339 q 441 328 471 299 q 500 269 514 207 l 514 207 l 539 105 q 549 61 560 42 q 570 22 592 23 l 592 23 q 609 24 621 34 q 632 44 645 61 l 645 61 l 660 50 q 639 19 617 3 q 594 -14 553 -14 l 553 -14 q 516 -14 488 8 q 460 30 446 94 l 446 94 l 424 194 q 415 237 404 269 q 392 300 372 318 q 351 336 311 336 l 311 336 l 203 336 z"},"S":{"ha":540,"x_min":0,"x_max":540,"o":"m 256 719 l 256 719 q 306 719 332 708 q 358 696 378 682 l 378 682 q 390 675 398 672 q 405 668 412 668 l 412 668 q 422 668 427 679 q 431 690 434 712 l 434 712 l 457 712 q 456 695 455 672 q 453 648 453 610 q 452 571 452 508 l 452 508 l 429 508 q 426 556 408 600 q 390 644 356 672 q 321 700 265 700 l 265 700 q 212 700 178 668 q 143 636 143 584 l 143 584 q 143 539 166 509 q 189 478 228 454 q 266 429 311 401 l 311 401 q 363 369 404 338 q 444 306 468 268 q 491 230 491 176 l 491 176 q 491 112 462 70 q 433 28 385 7 q 337 -14 279 -14 l 279 -14 q 226 -14 195 -2 q 164 10 142 23 l 142 23 q 120 37 108 37 l 108 37 q 98 37 94 26 q 89 15 86 -7 l 86 -7 l 63 -7 q 65 14 66 43 q 66 71 67 117 q 67 163 67 233 l 67 233 l 90 233 q 94 173 113 121 q 131 69 170 38 q 208 6 272 6 l 272 6 q 305 6 335 20 q 364 33 383 63 q 402 92 402 139 l 402 139 q 402 180 383 211 q 363 241 328 268 q 293 294 246 322 l 246 322 q 199 351 158 381 q 117 411 93 451 q 68 490 68 546 l 68 546 q 68 605 95 644 q 121 682 164 701 q 207 719 256 719 z"},"T":{"ha":621,"x_min":0,"x_max":621,"o":"m 592 708 l 592 708 q 588 670 587 635 q 585 599 585 580 l 585 580 q 585 556 586 535 q 587 514 588 498 l 588 498 l 565 498 q 558 568 546 609 q 534 649 504 667 q 474 685 411 685 l 411 685 l 357 685 l 357 116 q 357 76 365 56 q 372 36 394 29 q 416 22 458 20 l 458 20 l 458 0 q 432 2 392 3 q 352 3 311 3 l 311 3 q 266 3 227 3 q 187 2 163 0 l 163 0 l 163 20 q 205 22 227 29 q 249 36 257 56 q 264 76 264 116 l 264 116 l 264 685 l 210 685 q 148 685 118 667 q 87 649 75 609 q 63 568 56 498 l 56 498 l 33 498 q 35 514 36 535 q 36 556 36 580 l 36 580 q 36 599 35 635 q 33 670 29 708 l 29 708 q 71 707 121 706 q 170 705 220 705 q 270 705 311 705 l 311 705 q 352 705 402 705 q 451 705 501 706 q 551 707 592 708 z"},"U":{"ha":682,"x_min":0,"x_max":682,"o":"m 655 708 l 655 708 l 655 688 q 621 687 604 678 q 586 669 580 649 q 574 629 574 592 l 574 592 l 574 291 q 574 221 565 169 q 556 117 533 79 l 533 79 q 508 37 460 12 q 412 -14 350 -14 l 350 -14 q 302 -14 259 -2 q 215 9 182 40 l 182 40 q 153 68 137 99 q 120 130 114 175 q 108 220 108 288 l 108 288 l 108 602 q 108 639 102 657 q 96 674 79 681 q 61 687 27 688 l 27 688 l 27 708 q 48 707 82 706 q 116 705 155 705 l 155 705 q 190 705 225 706 q 259 707 282 708 l 282 708 l 282 688 q 248 687 231 681 q 213 674 207 657 q 201 639 201 602 l 201 602 l 201 271 q 201 220 206 175 q 211 129 227 95 q 242 60 274 41 q 306 21 359 21 l 359 21 q 435 21 477 55 q 518 88 535 147 q 551 206 551 280 l 551 280 l 551 592 q 551 629 543 649 q 534 669 514 678 q 494 687 460 688 l 460 688 l 460 708 q 478 707 508 706 q 537 705 562 705 l 562 705 q 588 705 614 706 q 639 707 655 708 z"},"V":{"ha":630,"x_min":0,"x_max":630,"o":"m 637 708 l 637 708 l 637 688 q 618 684 597 665 q 575 646 558 601 l 558 601 l 323 -5 q 321 -5 319 -5 q 317 -5 315 -5 l 315 -5 q 313 -5 311 -5 q 309 -5 307 -5 l 307 -5 l 63 624 q 48 662 29 675 q 10 687 -6 688 l -6 688 l -6 708 q 14 707 44 706 q 73 705 101 705 l 101 705 q 140 705 174 706 q 208 707 229 708 l 229 708 l 229 688 q 195 687 178 680 q 160 673 159 656 q 157 638 170 604 l 170 604 l 356 111 l 340 94 l 514 546 q 535 600 534 631 q 533 661 511 674 q 489 687 447 688 l 447 688 l 447 708 q 476 707 506 706 q 536 705 562 705 l 562 705 q 588 705 605 706 q 622 707 637 708 z"},"W":{"ha":905,"x_min":0,"x_max":905,"o":"m 907 708 l 907 708 l 907 688 q 888 684 865 666 q 842 647 828 601 l 828 601 l 639 -5 q 637 -5 635 -5 q 633 -5 631 -5 l 631 -5 q 629 -5 627 -5 q 625 -5 623 -5 l 623 -5 l 411 624 q 398 663 382 675 q 366 687 352 688 l 352 688 l 352 708 q 370 707 397 706 q 424 705 449 705 l 449 705 q 488 705 522 706 q 556 707 577 708 l 577 708 l 577 688 q 547 687 530 682 q 512 677 510 660 q 507 643 519 604 l 519 604 l 668 143 l 654 131 l 786 546 q 804 601 803 632 q 801 662 780 675 q 759 687 717 688 l 717 688 l 717 708 q 746 707 776 706 q 806 705 832 705 l 832 705 q 858 705 875 706 q 892 707 907 708 z m 208 708 l 208 708 l 208 688 q 182 686 171 678 q 159 670 160 653 q 160 635 170 604 l 170 604 l 325 131 l 300 106 l 440 553 l 455 529 l 290 -5 q 288 -5 286 -5 q 284 -5 282 -5 l 282 -5 q 280 -5 278 -5 q 276 -5 274 -5 l 274 -5 l 62 624 q 49 663 29 675 q 9 687 -7 688 l -7 688 l -7 708 q 13 707 43 706 q 72 705 100 705 l 100 705 q 133 705 162 706 q 190 707 208 708 z"},"X":{"ha":634,"x_min":0,"x_max":634,"o":"m 244 708 l 244 708 l 244 687 q 194 687 183 677 q 172 666 186 643 l 186 643 l 560 71 q 579 42 592 33 q 605 23 627 21 l 627 21 l 627 0 q 614 1 591 3 q 567 4 541 4 l 541 4 q 501 4 461 3 q 420 1 400 0 l 400 0 l 400 21 q 450 21 464 27 q 478 33 464 55 l 464 55 l 84 637 q 65 666 53 676 q 40 686 17 687 l 17 687 l 17 708 q 30 707 54 706 q 78 704 103 704 l 103 704 q 144 704 180 706 q 216 707 244 708 z m 129 112 l 299 365 q 299 365 301 359 q 303 352 306 346 q 308 339 308 339 l 308 339 l 185 156 q 149 102 148 73 q 146 44 170 33 q 194 21 236 20 l 236 20 l 236 0 q 222 1 204 2 q 186 2 168 3 q 149 3 132 3 q 114 3 101 3 l 101 3 q 76 3 54 3 q 31 2 16 0 l 16 0 l 16 20 q 47 25 74 48 q 101 71 129 112 l 129 112 z m 606 708 l 606 708 l 606 688 q 575 684 548 661 q 521 637 493 596 l 493 596 l 332 356 q 332 356 329 369 q 326 382 326 382 l 326 382 l 440 552 q 476 606 482 635 q 488 664 468 676 q 448 687 406 688 l 406 688 l 406 708 q 425 707 445 707 q 465 706 485 706 q 504 705 521 705 l 521 705 q 547 705 569 706 q 591 707 606 708 z"},"Y":{"ha":591,"x_min":0,"x_max":591,"o":"m 588 708 l 588 708 l 588 688 q 569 684 550 664 q 531 643 508 599 l 508 599 l 306 199 l 289 199 l 55 631 q 35 668 22 678 q 8 687 -3 687 l -3 687 l -3 708 q 17 707 39 706 q 60 705 85 705 l 85 705 q 118 705 156 706 q 193 706 225 708 l 225 708 l 225 687 q 200 687 181 681 q 162 675 156 659 q 150 643 165 614 l 165 614 l 334 290 l 326 284 l 459 549 q 487 604 487 634 q 486 664 463 676 q 440 687 398 688 l 398 688 l 398 708 q 427 707 457 706 q 487 705 513 705 l 513 705 q 539 705 556 706 q 573 707 588 708 z m 312 249 l 351 304 l 351 106 q 351 70 357 52 q 363 34 381 28 q 398 22 432 20 l 432 20 l 432 0 q 409 2 375 3 q 340 3 305 3 l 305 3 q 266 3 232 3 q 198 2 177 0 l 177 0 l 177 20 q 211 22 229 28 q 246 34 252 52 q 258 70 258 106 l 258 106 l 258 311 l 312 249 z"},"Z":{"ha":594,"x_min":0,"x_max":594,"o":"m 550 708 l 550 708 l 550 688 l 151 23 l 347 23 q 394 23 424 33 q 453 43 471 65 q 488 86 497 122 q 506 158 511 210 l 511 210 l 534 210 q 531 179 531 128 l 531 128 q 531 109 533 74 q 534 38 538 0 l 538 0 q 501 2 457 3 q 413 3 370 3 q 326 3 289 3 l 289 3 q 230 3 165 3 q 99 2 42 0 l 42 0 l 42 20 l 444 685 l 249 685 q 202 685 173 675 q 143 665 126 644 q 108 622 99 586 q 90 550 85 498 l 85 498 l 62 498 q 64 514 65 535 q 65 556 65 580 l 65 580 q 65 599 64 635 q 62 670 58 708 l 58 708 q 95 707 139 706 q 183 705 227 705 q 271 705 307 705 l 307 705 q 364 705 430 706 q 495 706 550 708 z"},"[":{"ha":296,"x_min":0,"x_max":296,"o":"m 92 772 l 263 772 l 263 753 l 182 753 l 182 -162 l 263 -162 l 263 -181 l 92 -181 l 92 772 z"},"\\":{"ha":372,"x_min":0,"x_max":372,"o":"m 305 -14 l 33 722 l 66 722 l 338 -14 l 305 -14 z"},"]":{"ha":296,"x_min":0,"x_max":296,"o":"m 33 753 l 33 772 l 204 772 l 204 -181 l 33 -181 l 33 -162 l 114 -162 l 114 753 l 33 753 z"},"^":{"ha":536,"x_min":0,"x_max":536,"o":"m 259 528 l 277 528 q 300 472 350 420 q 399 368 464 336 l 464 336 l 456 322 q 396 344 340 377 q 283 409 248 442 l 248 442 q 220 409 174 377 q 128 344 80 322 l 80 322 l 72 336 q 137 368 187 420 q 236 472 259 528 l 259 528 z"},"_":{"ha":591,"x_min":0,"x_max":591,"o":"m 69 -115 l 522 -115 l 522 -155 l 69 -155 l 69 -115 z"},"`":{"ha":283,"x_min":0,"x_max":283,"o":"m 64 813 l 64 813 q 76 822 93 820 q 109 818 124 798 l 124 798 q 139 779 152 753 q 165 727 184 692 q 202 657 233 608 l 233 608 l 222 599 q 183 641 153 668 q 123 694 102 713 q 80 732 64 751 l 64 751 q 49 771 51 787 q 52 803 64 813 z"},"a":{"ha":498,"x_min":0,"x_max":498,"o":"m 171 -7 l 171 -7 q 130 -7 100 9 q 70 24 55 52 q 39 80 39 117 l 39 117 q 39 161 60 189 q 80 217 112 234 q 144 251 180 263 q 215 274 247 285 q 279 295 300 309 q 320 323 320 346 l 320 346 l 320 408 q 320 450 308 472 q 295 494 274 502 q 253 509 227 509 l 227 509 q 202 509 174 502 q 145 495 128 473 l 128 473 q 147 469 161 453 q 175 437 175 412 l 175 412 q 175 387 159 373 q 143 358 118 358 l 118 358 q 89 358 76 377 q 62 395 62 418 l 62 418 q 62 444 75 460 q 88 476 108 490 l 108 490 q 131 506 168 518 q 204 529 250 529 l 250 529 q 291 529 320 520 q 349 510 368 492 l 368 492 q 394 468 402 434 q 410 399 410 351 l 410 351 l 410 73 q 410 48 418 37 q 425 26 441 26 l 441 26 q 452 26 462 31 q 472 36 486 47 l 486 47 l 497 30 q 476 14 457 4 q 438 -7 406 -7 l 406 -7 q 377 -7 358 3 q 339 13 330 33 q 320 52 320 82 l 320 82 q 293 37 256 15 q 218 -7 171 -7 z m 207 33 l 207 33 q 240 33 269 52 q 297 71 320 109 l 320 109 l 320 305 q 308 288 285 277 q 262 265 235 254 q 208 242 184 227 q 159 211 143 186 q 127 161 127 121 l 127 121 q 127 81 149 57 q 170 33 207 33 z"},"b":{"ha":563,"x_min":0,"x_max":563,"o":"m 326 529 l 326 529 q 408 529 462 462 q 516 394 516 257 l 516 257 q 516 167 486 107 q 455 46 404 16 q 353 -14 293 -14 l 293 -14 q 243 -14 197 15 q 150 43 127 99 l 127 99 l 147 88 q 172 48 209 29 q 246 9 285 9 l 285 9 q 352 9 386 70 q 419 130 419 257 l 419 257 q 419 338 406 392 q 393 446 366 473 q 339 499 297 499 l 297 499 q 251 499 212 458 q 172 416 163 336 l 163 336 l 151 350 q 162 435 211 482 q 259 529 326 529 z m 170 783 l 170 783 l 170 52 q 157 41 144 30 q 130 18 117 7 q 104 -4 90 -16 l 90 -16 l 73 -9 q 77 5 79 20 q 80 34 80 49 l 80 49 l 80 663 q 80 708 64 730 q 48 751 4 751 l 4 751 l 4 772 q 36 769 66 769 l 66 769 q 95 769 122 773 q 148 776 170 783 z"},"c":{"ha":486,"x_min":0,"x_max":486,"o":"m 279 529 l 279 529 q 311 529 341 521 q 371 513 395 497 l 395 497 q 418 482 430 463 q 442 443 442 420 l 442 420 q 442 393 427 379 q 412 364 389 364 l 389 364 q 367 364 351 377 q 334 390 334 414 l 334 414 q 334 437 347 451 q 359 465 376 469 l 376 469 q 366 487 341 499 q 315 511 286 511 l 286 511 q 261 511 236 499 q 211 487 190 460 q 169 432 156 385 q 143 337 143 266 l 143 266 q 143 178 163 126 q 183 74 216 52 q 248 29 287 29 l 287 29 q 313 29 340 39 q 367 49 391 72 q 415 94 432 132 l 432 132 l 451 125 q 441 93 418 61 q 395 28 358 7 q 321 -14 267 -14 l 267 -14 q 205 -14 155 18 q 105 50 76 110 q 46 169 46 251 l 46 251 q 46 333 76 396 q 105 458 158 494 q 211 529 279 529 z"},"d":{"ha":581,"x_min":0,"x_max":581,"o":"m 484 784 l 484 784 l 484 109 q 484 64 501 43 q 517 21 560 21 l 560 21 l 560 0 q 529 3 498 3 l 498 3 q 469 3 443 0 q 416 -3 394 -11 l 394 -11 l 394 664 q 394 709 378 731 q 362 752 318 752 l 318 752 l 318 773 q 350 770 380 770 l 380 770 q 409 770 436 774 q 462 777 484 784 z m 274 529 l 274 529 q 318 529 357 508 q 395 487 408 436 l 408 436 l 395 426 q 381 468 352 487 q 322 506 282 506 l 282 506 q 223 506 184 445 q 144 384 145 257 l 145 257 q 145 176 161 123 q 176 69 207 43 q 237 16 281 16 l 281 16 q 323 16 357 52 q 391 88 398 158 l 398 158 l 410 144 q 402 68 362 27 q 321 -14 252 -14 l 252 -14 q 190 -14 144 16 q 97 46 73 106 q 48 166 48 257 l 48 257 q 48 348 80 409 q 111 469 163 499 q 214 529 274 529 z"},"e":{"ha":506,"x_min":0,"x_max":506,"o":"m 272 529 l 272 529 q 360 529 410 476 q 459 422 459 309 l 459 309 l 106 309 l 105 328 l 363 328 q 365 377 355 419 q 345 460 324 485 q 302 510 268 510 l 268 510 q 222 510 187 464 q 151 418 144 318 l 144 318 l 147 314 q 145 299 144 281 q 143 263 143 245 l 143 245 q 143 177 165 128 q 187 79 223 54 q 258 28 296 28 l 296 28 q 326 28 353 38 q 380 47 403 69 q 426 91 443 128 l 443 128 l 463 120 q 452 87 427 56 q 402 25 364 6 q 326 -14 276 -14 l 276 -14 q 204 -14 153 19 q 101 52 74 111 q 46 169 46 245 l 46 245 q 46 333 74 397 q 102 460 153 495 q 204 529 272 529 z"},"f":{"ha":332,"x_min":0,"x_max":332,"o":"m 276 782 l 276 782 q 304 782 326 775 q 347 767 363 755 l 363 755 q 378 743 386 727 q 394 711 394 693 l 394 693 q 394 670 379 655 q 364 640 341 640 l 341 640 q 319 640 303 655 q 286 669 286 694 l 286 694 q 286 715 298 728 q 309 741 328 745 l 328 745 q 325 754 313 761 q 300 767 279 767 l 279 767 q 256 767 240 757 q 223 747 214 730 l 214 730 q 202 709 199 668 q 196 626 196 540 l 196 540 l 196 514 l 303 514 l 303 494 l 196 494 l 196 103 q 196 54 225 38 q 253 21 302 21 l 302 21 l 302 0 q 279 1 237 3 q 195 4 148 4 l 148 4 q 114 4 81 3 q 47 1 30 0 l 30 0 l 30 21 q 71 21 89 36 q 106 51 106 93 l 106 93 l 106 494 l 26 494 l 26 514 l 106 514 q 106 573 111 613 q 116 653 127 682 q 138 710 157 732 l 157 732 q 177 755 208 769 q 239 782 276 782 z"},"g":{"ha":528,"x_min":0,"x_max":528,"o":"m 213 -188 l 213 -188 q 160 -188 113 -177 q 66 -166 38 -142 q 9 -119 9 -83 l 9 -83 q 9 -48 37 -23 q 65 2 113 15 l 113 15 l 119 -1 q 97 -8 84 -29 q 71 -50 71 -76 l 71 -76 q 71 -122 114 -146 q 156 -171 224 -171 l 224 -171 q 269 -171 312 -159 q 355 -148 383 -121 q 411 -94 411 -50 l 411 -50 q 411 -17 388 5 q 364 26 295 26 l 295 26 l 221 26 q 189 26 159 31 q 129 36 110 52 q 91 68 91 101 l 91 101 q 91 135 119 167 q 147 198 222 231 l 222 231 l 234 222 q 200 204 175 186 q 150 167 150 142 l 150 142 q 150 110 198 110 l 198 110 l 323 110 q 365 110 401 98 q 436 86 458 60 q 480 34 480 -8 l 480 -8 q 480 -55 450 -96 q 420 -137 361 -162 q 301 -188 213 -188 z m 218 213 l 218 213 q 169 213 129 230 q 89 246 66 281 q 43 316 43 371 l 43 371 q 43 426 66 461 q 89 496 129 513 q 169 529 218 529 l 218 529 q 268 529 308 513 q 347 496 370 461 q 393 426 393 371 l 393 371 q 393 316 370 281 q 347 246 308 230 q 268 213 218 213 z m 218 231 l 218 231 q 256 231 278 261 q 299 291 299 371 l 299 371 q 299 451 278 481 q 256 511 218 511 l 218 511 q 181 511 159 481 q 137 451 137 371 l 137 371 q 137 291 159 261 q 181 231 218 231 z m 362 446 l 362 446 l 344 453 q 358 487 392 513 q 426 539 463 539 l 463 539 q 489 539 505 525 q 521 510 521 481 l 521 481 q 521 450 505 438 q 488 425 471 425 l 471 425 q 456 425 443 436 q 430 446 428 469 q 426 492 442 528 l 442 528 l 455 525 q 413 509 395 492 q 377 474 362 446 z"},"h":{"ha":588,"x_min":0,"x_max":588,"o":"m 186 783 l 186 783 l 186 409 q 212 477 259 503 q 305 529 356 529 l 356 529 q 394 529 420 519 q 445 509 462 491 l 462 491 q 481 471 489 441 q 497 411 497 360 l 497 360 l 497 93 q 497 51 515 36 q 532 21 573 21 l 573 21 l 573 0 q 556 1 521 3 q 486 4 453 4 l 453 4 q 420 4 389 3 q 357 1 341 0 l 341 0 l 341 21 q 377 21 392 36 q 407 51 407 93 l 407 93 l 407 382 q 407 413 402 439 q 397 465 380 481 q 362 497 326 497 l 326 497 q 285 497 254 474 q 222 451 204 410 q 186 369 186 316 l 186 316 l 186 93 q 186 51 201 36 q 216 21 252 21 l 252 21 l 252 0 q 236 1 205 3 q 173 4 140 4 l 140 4 q 107 4 72 3 q 37 1 20 0 l 20 0 l 20 21 q 61 21 79 36 q 96 51 96 93 l 96 93 l 96 663 q 96 708 80 730 q 64 751 20 751 l 20 751 l 20 772 q 52 769 82 769 l 82 769 q 111 769 138 773 q 164 776 186 783 z"},"i":{"ha":293,"x_min":0,"x_max":293,"o":"m 143 765 l 143 765 q 169 765 188 746 q 207 727 207 701 l 207 701 q 207 675 188 656 q 169 637 143 637 l 143 637 q 117 637 98 656 q 79 675 79 701 l 79 701 q 79 727 98 746 q 117 765 143 765 z m 195 526 l 195 526 l 195 93 q 195 51 213 36 q 230 21 271 21 l 271 21 l 271 0 q 254 1 220 3 q 185 4 150 4 l 150 4 q 116 4 81 3 q 46 1 29 0 l 29 0 l 29 21 q 70 21 88 36 q 105 51 105 93 l 105 93 l 105 406 q 105 451 89 473 q 73 494 29 494 l 29 494 l 29 515 q 61 512 91 512 l 91 512 q 120 512 147 516 q 173 519 195 526 z"},"j":{"ha":267,"x_min":0,"x_max":267,"o":"m -26 -188 l -26 -188 l -26 -173 q 36 -170 67 -119 q 98 -69 98 19 l 98 19 l 98 406 q 98 451 82 473 q 66 494 22 494 l 22 494 l 22 515 q 54 512 84 512 l 84 512 q 113 512 140 516 q 166 519 188 526 l 188 526 l 188 115 q 188 65 181 20 q 174 -25 158 -62 q 142 -99 116 -127 l 116 -127 q 91 -154 55 -171 q 18 -188 -26 -188 z m 134 765 l 134 765 q 160 765 179 746 q 198 727 198 701 l 198 701 q 198 675 179 656 q 160 637 134 637 l 134 637 q 108 637 89 656 q 70 675 70 701 l 70 701 q 70 727 89 746 q 108 765 134 765 z"},"k":{"ha":550,"x_min":0,"x_max":550,"o":"m 186 784 l 186 784 l 186 93 q 186 51 201 36 q 216 21 252 21 l 252 21 l 252 0 q 236 1 205 3 q 173 4 141 4 l 141 4 q 107 4 72 3 q 37 1 20 0 l 20 0 l 20 21 q 61 21 79 36 q 96 51 96 93 l 96 93 l 96 664 q 96 709 80 731 q 64 752 20 752 l 20 752 l 20 773 q 52 770 82 770 l 82 770 q 111 770 138 774 q 164 777 186 784 z m 504 515 l 504 515 l 504 495 q 479 493 457 482 q 435 470 414 448 l 414 448 l 273 300 l 287 328 l 473 73 q 490 50 506 37 q 521 24 543 21 l 543 21 l 543 0 q 532 1 509 3 q 485 4 462 4 l 462 4 q 431 4 399 3 q 367 1 351 0 l 351 0 l 351 21 q 371 21 379 31 q 387 41 376 55 l 376 55 l 261 223 q 242 250 227 258 q 211 266 182 267 l 182 267 l 182 287 q 214 291 234 301 q 254 310 272 329 l 272 329 l 346 406 q 378 439 378 459 q 378 478 358 487 q 337 495 304 495 l 304 495 l 304 515 q 330 514 363 513 q 395 511 417 511 l 417 511 q 434 511 450 512 q 466 512 480 513 q 494 514 504 515 z"},"l":{"ha":286,"x_min":0,"x_max":286,"o":"m 188 784 l 188 784 l 188 93 q 188 51 206 36 q 223 21 264 21 l 264 21 l 264 0 q 247 1 213 3 q 178 4 143 4 l 143 4 q 109 4 74 3 q 39 1 22 0 l 22 0 l 22 21 q 63 21 81 36 q 98 51 98 93 l 98 93 l 98 664 q 98 709 82 731 q 66 752 22 752 l 22 752 l 22 773 q 54 770 84 770 l 84 770 q 113 770 140 774 q 166 777 188 784 z"},"m":{"ha":888,"x_min":0,"x_max":888,"o":"m 359 529 l 359 529 q 394 529 420 519 q 446 509 463 491 l 463 491 q 482 471 489 439 q 496 407 496 360 l 496 360 l 496 93 q 496 51 514 36 q 531 21 572 21 l 572 21 l 572 0 q 555 1 520 3 q 485 4 452 4 l 452 4 q 419 4 388 3 q 356 1 340 0 l 340 0 l 340 21 q 376 21 391 36 q 406 51 406 93 l 406 93 l 406 382 q 406 413 402 439 q 398 465 382 481 q 366 497 330 497 l 330 497 q 291 497 261 473 q 230 449 213 408 q 195 366 195 315 l 195 315 l 195 93 q 195 51 210 36 q 225 21 261 21 l 261 21 l 261 0 q 245 1 214 3 q 182 4 149 4 l 149 4 q 116 4 81 3 q 46 1 29 0 l 29 0 l 29 21 q 70 21 88 36 q 105 51 105 93 l 105 93 l 105 406 q 105 451 89 473 q 73 494 29 494 l 29 494 l 29 515 q 61 512 91 512 l 91 512 q 120 512 147 516 q 173 519 195 526 l 195 526 l 195 408 q 221 473 266 501 q 311 529 359 529 z m 660 529 l 660 529 q 695 529 721 519 q 747 509 764 491 l 764 491 q 783 471 790 439 q 797 407 797 360 l 797 360 l 797 93 q 797 51 815 36 q 832 21 873 21 l 873 21 l 873 0 q 856 1 821 3 q 786 4 753 4 l 753 4 q 720 4 689 3 q 657 1 641 0 l 641 0 l 641 21 q 677 21 692 36 q 707 51 707 93 l 707 93 l 707 382 q 707 413 703 439 q 699 465 683 481 q 667 497 631 497 l 631 497 q 592 497 562 473 q 531 449 514 408 q 496 367 496 316 l 496 316 l 493 409 q 520 478 566 504 q 612 529 660 529 z"},"n":{"ha":597,"x_min":0,"x_max":597,"o":"m 365 529 l 365 529 q 403 529 429 519 q 454 509 471 491 l 471 491 q 490 471 498 441 q 506 411 506 360 l 506 360 l 506 93 q 506 51 524 36 q 541 21 582 21 l 582 21 l 582 0 q 565 1 530 3 q 495 4 462 4 l 462 4 q 429 4 398 3 q 366 1 350 0 l 350 0 l 350 21 q 386 21 401 36 q 416 51 416 93 l 416 93 l 416 382 q 416 413 411 439 q 406 465 389 481 q 371 497 335 497 l 335 497 q 293 497 262 473 q 230 449 213 408 q 195 366 195 315 l 195 315 l 195 93 q 195 51 210 36 q 225 21 261 21 l 261 21 l 261 0 q 245 1 214 3 q 182 4 149 4 l 149 4 q 116 4 81 3 q 46 1 29 0 l 29 0 l 29 21 q 70 21 88 36 q 105 51 105 93 l 105 93 l 105 406 q 105 451 89 473 q 73 494 29 494 l 29 494 l 29 515 q 61 512 91 512 l 91 512 q 120 512 147 516 q 173 519 195 526 l 195 526 l 195 408 q 221 476 268 503 q 314 529 365 529 z"},"o":{"ha":548,"x_min":0,"x_max":548,"o":"m 274 529 l 274 529 q 338 529 389 501 q 440 473 471 413 q 501 353 501 257 l 501 257 q 501 161 471 102 q 440 42 389 14 q 338 -14 274 -14 l 274 -14 q 211 -14 160 14 q 108 42 78 102 q 47 161 47 257 l 47 257 q 47 353 78 413 q 108 473 160 501 q 211 529 274 529 z m 274 509 l 274 509 q 217 509 181 450 q 144 391 144 257 l 144 257 q 144 123 181 65 q 217 6 274 6 l 274 6 q 331 6 368 65 q 404 123 404 257 l 404 257 q 404 391 368 450 q 331 509 274 509 z"},"p":{"ha":581,"x_min":0,"x_max":581,"o":"m 188 526 l 188 526 l 188 -88 q 188 -131 214 -145 q 239 -160 284 -160 l 284 -160 l 284 -181 q 262 -180 223 -178 q 184 -177 140 -177 l 140 -177 q 109 -177 79 -178 q 48 -180 32 -181 l 32 -181 l 32 -160 q 68 -160 83 -147 q 98 -134 98 -98 l 98 -98 l 98 406 q 98 451 82 473 q 66 494 22 494 l 22 494 l 22 515 q 54 512 84 512 l 84 512 q 113 512 140 516 q 166 519 188 526 z m 348 529 l 348 529 q 401 529 443 501 q 485 472 510 417 q 534 362 534 281 l 534 281 q 534 227 521 175 q 508 122 481 80 q 453 37 410 12 q 366 -14 305 -14 l 305 -14 q 258 -14 224 8 q 189 30 177 61 l 177 61 l 187 75 q 201 47 228 28 q 254 9 294 9 l 294 9 q 350 9 381 44 q 412 79 425 138 q 437 196 437 267 l 437 267 q 437 347 424 398 q 411 449 385 474 q 359 499 321 499 l 321 499 q 272 499 232 459 q 192 418 181 336 l 181 336 l 169 350 q 180 435 230 482 q 279 529 348 529 z"},"q":{"ha":563,"x_min":0,"x_max":563,"o":"m 261 529 l 261 529 q 323 529 361 503 q 399 476 420 415 l 420 415 l 400 426 q 381 467 347 487 q 313 506 269 506 l 269 506 q 210 506 177 445 q 144 384 144 257 l 144 257 q 144 177 160 123 q 176 69 207 43 q 238 16 282 16 l 282 16 q 324 16 359 57 q 394 98 400 178 l 400 178 l 412 164 q 405 79 361 33 q 316 -14 253 -14 l 253 -14 q 196 -14 149 16 q 102 45 75 106 q 47 166 47 257 l 47 257 q 47 348 76 409 q 104 469 153 499 q 201 529 261 529 z m 473 531 l 473 531 l 490 524 q 486 511 485 496 q 483 481 483 466 l 483 466 l 483 -98 q 483 -134 498 -147 q 513 -160 549 -160 l 549 -160 l 549 -181 q 533 -180 503 -178 q 473 -177 441 -177 l 441 -177 q 398 -177 359 -178 q 319 -180 297 -181 l 297 -181 l 297 -160 q 342 -160 368 -145 q 393 -131 393 -88 l 393 -88 l 393 447 q 407 461 420 475 q 433 489 447 503 q 460 517 473 531 z"},"r":{"ha":445,"x_min":0,"x_max":445,"o":"m 340 529 l 340 529 q 367 529 388 518 q 408 507 420 490 q 431 472 431 450 l 431 450 q 431 425 416 406 q 400 387 374 387 l 374 387 q 353 387 337 401 q 321 414 321 439 l 321 439 q 321 458 332 472 q 342 485 355 493 l 355 493 q 348 503 334 503 l 334 503 q 303 503 277 485 q 251 466 233 437 q 215 408 205 376 q 195 343 195 315 l 195 315 l 195 103 q 195 54 224 38 q 252 21 301 21 l 301 21 l 301 0 q 278 1 236 3 q 194 4 147 4 l 147 4 q 113 4 80 3 q 46 1 29 0 l 29 0 l 29 21 q 70 21 88 36 q 105 51 105 93 l 105 93 l 105 406 q 105 451 89 473 q 73 494 29 494 l 29 494 l 29 515 q 61 512 91 512 l 91 512 q 120 512 147 516 q 173 519 195 526 l 195 526 l 195 401 q 206 430 227 460 q 247 489 276 509 q 305 529 340 529 z"},"s":{"ha":447,"x_min":0,"x_max":447,"o":"m 208 529 l 208 529 q 248 529 276 516 q 304 503 317 492 l 317 492 q 350 465 357 528 l 357 528 l 380 528 q 378 500 377 462 q 376 423 376 358 l 376 358 l 353 358 q 347 395 333 430 q 318 465 290 488 q 262 510 217 510 l 217 510 q 182 510 159 491 q 135 471 135 433 l 135 433 q 135 403 153 382 q 171 360 200 342 q 229 323 263 301 l 263 301 q 301 277 332 252 q 363 227 382 197 q 400 167 400 126 l 400 126 q 400 80 376 49 q 352 18 314 2 q 275 -14 229 -14 l 229 -14 q 207 -14 188 -10 q 168 -7 150 0 l 150 0 q 140 5 130 12 q 119 19 109 27 l 109 27 q 99 35 91 27 q 83 18 79 -7 l 79 -7 l 56 -7 q 58 25 59 71 q 60 117 60 193 l 60 193 l 83 193 q 90 137 103 95 q 116 53 144 30 q 172 6 222 6 l 222 6 q 242 6 263 15 q 283 24 297 45 q 311 66 311 101 l 311 101 q 311 145 279 173 q 247 201 198 232 l 198 232 q 162 255 131 278 q 99 301 80 330 q 60 359 60 400 l 60 400 q 60 445 81 474 q 101 502 135 516 q 169 529 208 529 z"},"t":{"ha":354,"x_min":0,"x_max":354,"o":"m 190 681 l 190 681 l 190 514 l 338 514 l 338 494 l 190 494 l 190 107 q 190 60 207 41 q 224 22 254 22 l 254 22 q 284 22 306 47 q 328 71 344 129 l 344 129 l 364 124 q 354 66 325 26 q 295 -14 234 -14 l 234 -14 q 200 -14 178 -5 q 156 3 139 19 l 139 19 q 117 42 109 74 q 100 106 100 159 l 100 159 l 100 494 l 4 494 l 4 514 l 100 514 l 100 667 q 125 668 148 671 q 171 674 190 681 z"},"u":{"ha":581,"x_min":0,"x_max":581,"o":"m 483 526 l 483 526 l 483 108 q 483 63 500 42 q 516 20 559 20 l 559 20 l 559 -1 q 528 2 497 2 l 497 2 q 468 2 442 -1 q 415 -4 393 -12 l 393 -12 l 393 106 q 368 41 323 14 q 277 -14 229 -14 l 229 -14 q 194 -14 168 -4 q 142 6 125 24 l 125 24 q 106 44 99 76 q 92 108 92 155 l 92 155 l 92 406 q 92 451 76 473 q 60 494 16 494 l 16 494 l 16 515 q 48 512 78 512 l 78 512 q 107 512 134 516 q 160 519 182 526 l 182 526 l 182 133 q 182 102 186 76 q 190 50 206 34 q 222 18 258 18 l 258 18 q 297 18 328 42 q 358 66 376 107 q 393 148 393 199 l 393 199 l 393 406 q 393 451 377 473 q 361 494 317 494 l 317 494 l 317 515 q 349 512 379 512 l 379 512 q 408 512 435 516 q 461 519 483 526 z"},"v":{"ha":489,"x_min":0,"x_max":489,"o":"m 486 515 l 486 515 l 486 495 q 467 493 451 478 q 435 463 421 425 l 421 425 l 257 -5 q 253 -5 249 -5 q 245 -5 240 -5 l 240 -5 l 56 438 q 40 477 25 486 q 9 494 -2 494 l -2 494 l -2 515 q 18 514 40 513 q 61 511 86 511 l 86 511 q 117 511 152 512 q 186 513 216 515 l 216 515 l 216 494 q 191 494 172 491 q 152 487 147 471 q 141 455 156 416 l 156 416 l 281 107 l 275 102 l 389 401 q 402 434 400 454 q 397 473 380 483 q 362 493 326 495 l 326 495 l 326 515 q 344 514 357 514 q 370 513 383 513 q 395 512 410 512 l 410 512 q 433 512 452 513 q 470 514 486 515 z"},"w":{"ha":770,"x_min":0,"x_max":770,"o":"m 218 515 l 218 515 l 218 494 q 193 494 174 491 q 155 487 149 470 q 143 453 158 410 l 158 410 l 262 112 l 255 113 l 402 519 l 422 511 l 239 -5 q 235 -5 231 -5 q 227 -5 222 -5 l 222 -5 l 58 438 q 42 478 27 486 q 11 494 0 494 l 0 494 l 0 515 q 20 512 42 511 q 63 509 88 509 l 88 509 q 119 509 154 511 q 188 513 218 515 z m 767 515 l 767 515 l 767 495 q 748 493 732 479 q 715 464 702 425 l 702 425 l 557 -5 q 553 -5 549 -5 q 545 -5 540 -5 l 540 -5 l 379 404 l 402 519 q 408 519 414 519 q 419 519 425 519 l 425 519 l 581 106 l 573 100 l 672 401 q 683 435 681 455 q 678 474 661 484 q 643 493 607 495 l 607 495 l 607 515 q 625 514 638 514 q 651 513 664 513 q 676 512 691 512 l 691 512 q 714 512 733 513 q 751 514 767 515 z"},"x":{"ha":519,"x_min":0,"x_max":519,"o":"m 212 515 l 212 515 l 212 494 q 193 494 180 485 q 167 476 177 460 l 177 460 l 444 71 q 461 46 474 36 q 487 25 506 21 l 506 21 l 506 0 q 496 1 476 3 q 455 4 435 4 l 435 4 q 404 4 369 3 q 333 1 317 0 l 317 0 l 317 21 q 337 21 350 31 q 363 40 352 55 l 352 55 l 85 444 q 65 473 53 483 q 41 492 23 494 l 23 494 l 23 515 q 33 514 54 513 q 75 511 94 511 l 94 511 q 126 511 161 513 q 196 514 212 515 z m 109 90 l 239 261 q 239 261 241 255 q 243 248 246 241 q 248 234 248 234 l 248 234 l 165 126 q 139 92 138 69 q 136 46 156 35 q 176 23 211 20 l 211 20 l 211 0 q 194 1 173 2 q 152 2 133 3 q 113 3 97 3 l 97 3 q 74 3 56 3 q 37 2 21 0 l 21 0 l 21 20 q 40 22 61 38 q 81 53 109 90 l 109 90 z m 486 515 l 486 515 l 486 495 q 467 493 445 476 q 422 458 398 425 l 398 425 l 283 266 q 283 266 281 273 q 279 279 277 286 q 275 292 275 292 l 275 292 l 353 401 q 375 432 381 452 q 387 472 375 483 q 362 493 326 495 l 326 495 l 326 515 q 352 514 370 513 q 387 512 410 512 l 410 512 q 433 512 452 513 q 470 514 486 515 z"},"y":{"ha":504,"x_min":0,"x_max":504,"o":"m 494 515 l 494 515 l 494 495 q 475 493 459 478 q 443 463 429 425 l 429 425 l 265 -5 l 248 -5 l 64 438 q 45 477 27 486 q 8 494 -4 494 l -4 494 l -4 515 q 18 512 42 511 q 66 509 94 509 l 94 509 q 125 509 160 511 q 194 513 224 515 l 224 515 l 224 494 q 199 494 180 491 q 160 487 155 470 q 150 452 167 410 l 167 410 l 290 105 l 284 103 l 398 401 q 411 434 409 454 q 406 473 388 483 q 370 493 334 495 l 334 495 l 334 515 q 352 514 365 514 q 378 513 391 513 q 403 512 418 512 l 418 512 q 441 512 460 513 q 478 514 494 515 z m 246 3 l 265 -5 l 231 -92 q 221 -117 211 -134 q 200 -151 188 -162 l 188 -162 q 172 -177 150 -182 q 128 -188 110 -188 l 110 -188 q 91 -188 76 -181 q 60 -174 51 -160 q 42 -147 42 -128 l 42 -128 q 42 -104 56 -89 q 70 -75 95 -75 l 95 -75 q 116 -75 131 -87 q 146 -99 146 -122 l 146 -122 q 146 -139 138 -150 q 130 -161 119 -167 l 119 -167 q 121 -168 123 -168 q 124 -168 125 -168 l 125 -168 q 152 -168 173 -149 q 194 -131 210 -90 l 210 -90 l 246 3 z"},"z":{"ha":476,"x_min":0,"x_max":476,"o":"m 439 520 l 439 520 l 150 15 l 260 15 q 300 15 330 31 q 359 47 377 83 q 395 118 399 176 l 399 176 l 422 176 q 422 112 423 68 q 424 24 426 -4 l 426 -4 q 382 -2 335 -1 q 287 0 240 0 l 240 0 q 190 0 138 -1 q 86 -3 38 -5 l 38 -5 l 327 500 l 217 500 q 173 500 144 484 q 114 468 99 433 q 83 397 78 339 l 78 339 l 55 339 q 55 404 54 448 q 53 491 51 519 l 51 519 q 95 517 143 516 q 190 515 237 515 l 237 515 q 287 515 339 517 q 391 518 439 520 z"},"{":{"ha":304,"x_min":0,"x_max":304,"o":"m 278 782 l 278 782 l 278 763 q 254 762 238 755 q 222 748 214 727 q 205 706 202 664 q 198 622 198 551 l 198 551 q 198 484 187 439 q 175 394 155 366 q 135 338 109 323 q 83 307 55 299 l 55 299 q 83 291 109 276 q 135 260 155 232 q 175 204 187 159 q 198 114 198 47 l 198 47 q 198 -27 202 -70 q 205 -113 214 -134 q 222 -156 238 -162 q 254 -169 278 -169 l 278 -169 l 278 -188 q 215 -188 178 -167 q 140 -147 124 -96 q 108 -45 108 47 l 108 47 q 108 141 102 193 q 95 244 79 266 q 63 288 32 290 l 32 290 l 27 290 l 27 308 l 32 308 q 63 310 79 332 q 95 353 102 405 q 108 457 108 551 l 108 551 q 108 639 124 690 q 140 740 178 761 q 215 782 278 782 z"},"|":{"ha":222,"x_min":0,"x_max":222,"o":"m 91 858 l 131 858 l 131 -195 l 91 -195 l 91 858 z"},"}":{"ha":304,"x_min":0,"x_max":304,"o":"m 26 763 l 26 782 q 90 782 127 761 q 164 740 180 690 q 196 639 196 551 l 196 551 q 196 457 203 405 q 209 353 226 332 q 242 310 272 308 l 272 308 l 277 308 l 277 290 l 272 290 q 242 288 226 266 q 209 244 203 193 q 196 141 196 47 l 196 47 q 196 -45 180 -96 q 164 -147 127 -167 q 90 -188 26 -188 l 26 -188 l 26 -169 q 50 -169 66 -162 q 82 -156 91 -134 q 99 -113 103 -70 q 106 -27 106 47 l 106 47 q 106 114 118 159 q 129 204 149 232 q 169 260 195 276 q 221 291 249 299 l 249 299 q 221 307 195 323 q 169 338 149 366 q 129 394 118 439 q 106 484 106 551 l 106 551 q 106 622 103 664 q 99 706 91 727 q 82 748 66 755 q 50 762 26 763 l 26 763 z"},"~":{"ha":649,"x_min":0,"x_max":649,"o":"m 215 365 l 215 365 q 252 365 284 354 q 315 342 345 327 q 374 311 405 300 q 435 288 469 288 l 469 288 q 499 288 523 301 q 546 314 559 346 l 559 346 l 576 341 q 572 308 552 285 q 532 261 502 248 q 471 235 435 235 l 435 235 q 398 235 367 247 q 335 258 306 274 q 276 289 246 301 q 216 312 181 312 l 181 312 q 151 312 128 299 q 105 286 91 254 l 91 254 l 74 259 q 78 292 98 316 q 118 339 149 352 q 180 365 215 365 z"}}}
